<svg width="275" height="84" viewBox="0 0 275 84" fill="none" xmlns="http://www.w3.org/2000/svg">
<g clip-path="url(#clip0_193_642)">
<path d="M57.1105 0H40.0151L14.9868 70.2127H36.113L48.494 34.8347L61.0126 70.2127H81.4286" fill="#5F5F5F"/>
<path d="M25.9207 83.7084H70.5348L48.1079 20.3147L25.9207 83.7084Z" fill="#0D0D0D"/>
<path d="M97.9999 0H72.0793L85.8187 42.3486L97.9999 0Z" fill="#5F5F5F"/>
<path d="M25.9206 0H0L12.0392 42.3486L25.9206 0Z" fill="#5F5F5F"/>
<path d="M129.026 35.8688L121 10.2006H129.177L133.389 24.9109L138.243 10.2006H144.536L149.344 24.9109L153.609 10.2006H161.537L153.51 35.8688H145.975L141.37 22.9368L136.81 35.8688H129.026Z" fill="#5F5F5F"/>
<path d="M175.614 36.5594C173.666 36.5594 171.881 36.2313 170.263 35.5695C168.645 34.9134 167.246 33.9983 166.073 32.83C164.9 31.6617 163.993 30.2402 163.346 28.5596C162.704 26.8791 162.381 25.0375 162.381 23.0289C162.381 21.0549 162.693 19.2362 163.323 17.573C163.953 15.9097 164.825 14.4882 165.946 13.3026C167.067 12.117 168.431 11.1904 170.038 10.5113C171.638 9.83797 173.412 9.49841 175.365 9.49841C177.347 9.49841 179.133 9.83797 180.716 10.5113C182.3 11.1847 183.64 12.1055 184.733 13.2738C185.825 14.4421 186.657 15.8176 187.235 17.3945C187.813 18.9715 188.101 20.652 188.101 22.4303C188.101 23.0577 188.078 23.662 188.026 24.2547C187.98 24.8475 187.917 25.3597 187.853 25.7856H170.113C170.407 27.1323 171.06 28.174 172.072 28.8934C173.077 29.6186 174.395 29.9639 176.013 29.9294C177.203 29.9294 178.284 29.6589 179.26 29.1121C180.237 28.5711 181.069 27.7712 181.762 26.718L187.512 29.7279C186.322 31.8977 184.727 33.5782 182.727 34.7637C180.722 35.9666 178.353 36.5594 175.614 36.5594ZM175.365 15.7831C174.042 15.7831 172.921 16.1342 171.996 16.842C171.072 17.5499 170.459 18.5629 170.165 19.875H180.52C180.289 18.5571 179.717 17.5499 178.809 16.842C177.896 16.1342 176.752 15.7831 175.365 15.7831Z" fill="#5F5F5F"/>
<path d="M206.934 9.51572C208.719 9.51572 210.366 9.85528 211.892 10.5286C213.411 11.202 214.717 12.1401 215.81 13.3429C216.902 14.5458 217.757 15.9788 218.387 17.6363C219.017 19.2996 219.329 21.1009 219.329 23.0404C219.329 24.9799 219.023 26.7813 218.41 28.4446C217.797 30.1078 216.948 31.5351 215.856 32.738C214.764 33.9408 213.458 34.8789 211.938 35.5522C210.418 36.2256 208.765 36.5652 206.98 36.5652C205.362 36.5652 203.865 36.2601 202.496 35.6501C201.126 35.04 199.942 34.194 198.953 33.1063L198.208 35.8688H191.915V0.0829468H200.092V11.6336C201.016 10.943 202.057 10.4193 203.212 10.0567C204.374 9.69413 205.61 9.51572 206.934 9.51572ZM205.593 16.8191C203.94 16.8191 202.611 17.4119 201.606 18.5974C200.6 19.783 200.092 21.2621 200.092 23.0404C200.092 24.8188 200.595 26.2979 201.606 27.4835C202.611 28.669 203.946 29.2618 205.593 29.2618C207.176 29.2618 208.482 28.669 209.511 27.4835C210.534 26.2979 211.048 24.8188 211.048 23.0404C211.048 21.2621 210.534 19.783 209.511 18.5974C208.482 17.4119 207.182 16.8191 205.593 16.8191Z" fill="#5F5F5F"/>
<path d="M125.103 82.7851V64.8692H121.335V57.5659H125.103V55.2465C125.103 52.2826 125.952 49.9172 127.657 48.1388C129.356 46.3605 131.644 45.4742 134.522 45.4742C135.447 45.4742 136.273 45.5317 137.001 45.6468C137.723 45.7619 138.238 45.8713 138.538 45.9691V53.1746C138.307 53.1113 138.006 53.0423 137.648 52.979C137.284 52.9157 136.857 52.8811 136.36 52.8811C135.204 52.8811 134.401 53.2207 133.956 53.894C133.505 54.5674 133.285 55.563 133.285 56.881V57.5716H138.243V64.875H133.285V82.7909H125.103V82.7851Z" fill="#5F5F5F"/>
<path d="M153.932 56.4263C155.949 56.4263 157.798 56.7659 159.486 57.4392C161.167 58.1126 162.606 59.0507 163.796 60.2535C164.987 61.4564 165.911 62.8894 166.57 64.5469C167.229 66.2102 167.558 68.0116 167.558 69.9511C167.558 71.8906 167.229 73.6919 166.57 75.3552C165.911 77.0184 164.987 78.4457 163.796 79.6486C162.606 80.8514 161.167 81.7895 159.486 82.4629C157.798 83.1362 155.949 83.4758 153.932 83.4758C151.916 83.4758 150.072 83.1362 148.408 82.4629C146.738 81.7895 145.311 80.8514 144.12 79.6486C142.93 78.4457 142.005 77.0184 141.347 75.3552C140.688 73.6919 140.358 71.8906 140.358 69.9511C140.358 68.0116 140.688 66.2102 141.347 64.5469C142.005 62.8837 142.93 61.4564 144.12 60.2535C145.311 59.0507 146.738 58.1126 148.408 57.4392C150.072 56.7659 151.916 56.4263 153.932 56.4263ZM153.932 75.8271C155.55 75.8271 156.851 75.2746 157.821 74.1754C158.792 73.0704 159.283 71.6488 159.283 69.905C159.283 68.1957 158.792 66.7972 157.821 65.7095C156.845 64.6217 155.55 64.0807 153.932 64.0807C152.349 64.0807 151.066 64.6217 150.09 65.7095C149.113 66.7972 148.628 68.1957 148.628 69.905C148.628 71.6488 149.113 73.0704 150.09 74.1754C151.066 75.2746 152.343 75.8271 153.932 75.8271Z" fill="#5F5F5F"/>
<path d="M177.815 57.117L178.457 59.5859C179.283 58.832 180.317 58.1126 181.554 57.4392C182.791 56.7659 184.039 56.4263 185.293 56.4263C185.819 56.4263 186.316 56.4666 186.778 56.5472C187.24 56.6278 187.604 56.7544 187.87 56.9155V64.3167H186.183C184.761 64.3167 183.507 64.4491 182.415 64.7138C181.323 64.9786 180.416 65.3872 179.687 65.9454V82.7736H171.511V57.1054H177.815V57.117Z" fill="#5F5F5F"/>
<path d="M202.843 83.4758C200.895 83.4758 199.11 83.1478 197.492 82.4859C195.874 81.8298 194.475 80.9147 193.302 79.7464C192.129 78.5781 191.222 77.1566 190.575 75.4761C189.933 73.7956 189.61 71.9539 189.61 69.9453C189.61 67.9713 189.922 66.1527 190.552 64.4894C191.181 62.8261 192.054 61.4046 193.175 60.219C194.296 59.0335 195.66 58.1069 197.266 57.4278C198.867 56.7544 200.641 56.4149 202.594 56.4149C204.576 56.4149 206.362 56.7544 207.945 57.4278C209.528 58.1011 210.869 59.022 211.961 60.1903C213.053 61.3586 213.886 62.7341 214.463 64.311C215.041 65.8879 215.33 67.5684 215.33 69.3468C215.33 69.9741 215.307 70.5784 215.255 71.1712C215.209 71.764 215.145 72.2762 215.082 72.7021H197.341C197.636 74.0488 198.289 75.0905 199.3 75.8099C200.306 76.535 201.623 76.8803 203.241 76.8458C204.432 76.8458 205.512 76.5753 206.489 76.0286C207.466 75.4876 208.298 74.6876 208.991 73.6344L214.741 76.6444C213.55 78.8141 211.956 80.4946 209.956 81.6802C207.957 82.883 205.587 83.4758 202.843 83.4758ZM202.594 62.6938C201.271 62.6938 200.15 63.0448 199.225 63.7527C198.301 64.4606 197.688 65.4735 197.393 66.7857H207.749C207.518 65.4678 206.945 64.4606 206.038 63.7527C205.131 63.0506 203.987 62.6938 202.594 62.6938Z" fill="#5F5F5F"/>
<path d="M218.508 64.7656C218.508 63.6146 218.745 62.5211 219.225 61.4852C219.704 60.4492 220.392 59.5457 221.282 58.7687C222.172 57.9975 223.258 57.3817 224.529 56.9155C225.801 56.4551 227.245 56.2249 228.863 56.2249C231.244 56.2249 233.284 56.6853 234.983 57.6062C236.688 58.527 238.08 59.632 239.172 60.9154L234.463 65.2606C233.735 64.57 232.851 63.9887 231.81 63.511C230.77 63.0333 229.609 62.7974 228.314 62.7974C227.488 62.7974 226.829 62.9355 226.332 63.2175C225.835 63.4995 225.587 63.9024 225.587 64.4261C225.587 64.921 225.859 65.3412 226.402 65.6865C226.951 66.0318 228.031 66.3713 229.649 66.6994C232.856 67.39 235.231 68.3914 236.786 69.7093C238.34 71.0273 239.115 72.8689 239.115 75.2401C239.115 77.7091 238.138 79.7234 236.191 81.2831C234.243 82.8485 231.73 83.6254 228.655 83.6254C226.477 83.6254 224.518 83.188 222.784 82.319C221.051 81.45 219.421 80.0745 217.901 78.1983L222.31 73.8071C223.564 75.125 224.749 76.0228 225.853 76.4947C226.956 76.9667 228.124 77.2084 229.349 77.2084C230.008 77.2084 230.58 77.0587 231.059 76.7652C231.539 76.4717 231.776 76.0746 231.776 75.5797C231.776 75.0214 231.389 74.5437 230.609 74.1466C229.834 73.7495 228.32 73.3063 226.072 72.8114C223.495 72.2877 221.588 71.3496 220.346 69.9971C219.126 68.6504 218.508 66.9066 218.508 64.7656Z" fill="#5F5F5F"/>
<path d="M259.785 75.1826V82.5838C259.155 82.7794 258.479 82.9348 257.751 83.0499C257.023 83.165 256.231 83.2226 255.37 83.2226C252.463 83.2226 250.169 82.5262 248.482 81.1277C246.794 79.7292 245.957 77.4846 245.957 74.3883V64.4203H241.992V57.117H245.806L247.39 50.7H254.128V57.117H259.779V64.4203H254.128V72.3683C254.128 73.5193 254.399 74.3538 254.948 74.8603C255.491 75.3725 256.214 75.6257 257.103 75.6257C257.629 75.6257 258.126 75.5854 258.589 75.5049C259.057 75.4243 259.455 75.3149 259.785 75.1826Z" fill="#5F5F5F"/>
<path d="M269.499 83.3262C267.979 83.3262 266.685 82.7909 265.61 81.7205C264.535 80.65 263.998 79.3608 263.998 77.8472C263.998 76.3681 264.535 75.0905 265.61 74.02C266.685 72.9495 267.979 72.4143 269.499 72.4143C271.019 72.4143 272.313 72.9495 273.388 74.02C274.463 75.0905 275 76.3624 275 77.8472C275 79.3608 274.463 80.6558 273.388 81.7205C272.313 82.7852 271.019 83.3262 269.499 83.3262Z" fill="#0D0D0D"/>
</g>
<defs>
<clipPath id="clip0_193_642">
<rect width="275" height="83.7083" fill="white"/>
</clipPath>
</defs>
</svg>
