<svg width="275" height="85" viewBox="0 0 275 85" fill="none" xmlns="http://www.w3.org/2000/svg">
<g clip-path="url(#clip0_193_661)">
<path d="M57.1105 0.708374H40.0151L14.9868 70.9211H36.113L48.494 35.543L61.0126 70.9211H81.4286" fill="#F8F8F8"/>
<path d="M25.9207 84.4167H70.5348L48.1079 21.0231L25.9207 84.4167Z" fill="#A5A5A5"/>
<path d="M97.9999 0.708374H72.0793L85.8187 43.0569L97.9999 0.708374Z" fill="#F8F8F8"/>
<path d="M25.9206 0.708374H0L12.0392 43.0569L25.9206 0.708374Z" fill="#F8F8F8"/>
<path d="M129.026 36.5771L121 10.9089H129.177L133.389 25.6192L138.243 10.9089H144.536L149.344 25.6192L153.609 10.9089H161.537L153.51 36.5771H145.975L141.37 23.6452L136.81 36.5771H129.026Z" fill="#F8F8F8"/>
<path d="M175.614 37.2677C173.666 37.2677 171.881 36.9397 170.263 36.2778C168.645 35.6218 167.246 34.7067 166.073 33.5384C164.9 32.3701 163.993 30.9485 163.346 29.268C162.704 27.5875 162.381 25.7458 162.381 23.7373C162.381 21.7632 162.693 19.9446 163.323 18.2813C163.953 16.6181 164.825 15.1965 165.946 14.011C167.067 12.8254 168.431 11.8988 170.038 11.2197C171.638 10.5463 173.412 10.2068 175.365 10.2068C177.347 10.2068 179.133 10.5463 180.716 11.2197C182.3 11.8931 183.64 12.8139 184.733 13.9822C185.825 15.1505 186.657 16.526 187.235 18.1029C187.813 19.6798 188.101 21.3604 188.101 23.1387C188.101 23.766 188.078 24.3703 188.026 24.9631C187.98 25.5559 187.917 26.0681 187.853 26.494H170.113C170.407 27.8407 171.06 28.8824 172.072 29.6018C173.077 30.327 174.395 30.6723 176.013 30.6377C177.203 30.6377 178.284 30.3673 179.26 29.8205C180.237 29.2795 181.069 28.4795 181.762 27.4263L187.512 30.4363C186.322 32.606 184.727 34.2865 182.727 35.4721C180.722 36.675 178.353 37.2677 175.614 37.2677ZM175.365 16.4915C174.042 16.4915 172.921 16.8425 171.996 17.5504C171.072 18.2583 170.459 19.2712 170.165 20.5834H180.52C180.289 19.2655 179.717 18.2583 178.809 17.5504C177.896 16.8425 176.752 16.4915 175.365 16.4915Z" fill="#F8F8F8"/>
<path d="M206.934 10.2241C208.719 10.2241 210.366 10.5637 211.892 11.237C213.411 11.9104 214.717 12.8485 215.81 14.0513C216.902 15.2541 217.757 16.6872 218.387 18.3447C219.017 20.0079 219.329 21.8093 219.329 23.7488C219.329 25.6883 219.023 27.4897 218.41 29.1529C217.797 30.8162 216.948 32.2435 215.856 33.4463C214.764 34.6492 213.458 35.5873 211.938 36.2606C210.418 36.934 208.765 37.2735 206.98 37.2735C205.362 37.2735 203.865 36.9685 202.496 36.3585C201.126 35.7484 199.942 34.9024 198.953 33.8147L198.208 36.5772H191.915V0.791321H200.092V12.342C201.016 11.6514 202.057 11.1277 203.212 10.7651C204.374 10.4025 205.61 10.2241 206.934 10.2241ZM205.593 17.5274C203.94 17.5274 202.611 18.1202 201.606 19.3058C200.6 20.4914 200.092 21.9705 200.092 23.7488C200.092 25.5272 200.595 27.0063 201.606 28.1918C202.611 29.3774 203.946 29.9702 205.593 29.9702C207.176 29.9702 208.482 29.3774 209.511 28.1918C210.534 27.0063 211.048 25.5272 211.048 23.7488C211.048 21.9705 210.534 20.4914 209.511 19.3058C208.482 18.1202 207.182 17.5274 205.593 17.5274Z" fill="#F8F8F8"/>
<path d="M125.103 83.4935V65.5776H121.335V58.2742H125.103V55.9549C125.103 52.991 125.952 50.6256 127.657 48.8472C129.356 47.0689 131.644 46.1826 134.522 46.1826C135.447 46.1826 136.273 46.2401 137.001 46.3552C137.723 46.4703 138.238 46.5797 138.538 46.6775V53.883C138.307 53.8197 138.006 53.7506 137.648 53.6873C137.284 53.624 136.857 53.5895 136.36 53.5895C135.204 53.5895 134.401 53.9291 133.956 54.6024C133.505 55.2758 133.285 56.2714 133.285 57.5894V58.28H138.243V65.5833H133.285V83.4993H125.103V83.4935Z" fill="#F8F8F8"/>
<path d="M153.932 57.1347C155.949 57.1347 157.798 57.4743 159.486 58.1476C161.167 58.821 162.606 59.7591 163.796 60.9619C164.987 62.1648 165.911 63.5978 166.57 65.2553C167.229 66.9185 167.558 68.7199 167.558 70.6594C167.558 72.5989 167.229 74.4003 166.57 76.0636C165.911 77.7268 164.987 79.1541 163.796 80.3569C162.606 81.5598 161.167 82.4979 159.486 83.1712C157.798 83.8446 155.949 84.1841 153.932 84.1841C151.916 84.1841 150.072 83.8446 148.408 83.1712C146.738 82.4979 145.311 81.5598 144.12 80.3569C142.93 79.1541 142.005 77.7268 141.347 76.0636C140.688 74.4003 140.358 72.5989 140.358 70.6594C140.358 68.7199 140.688 66.9185 141.347 65.2553C142.005 63.592 142.93 62.1648 144.12 60.9619C145.311 59.7591 146.738 58.821 148.408 58.1476C150.072 57.4743 151.916 57.1347 153.932 57.1347ZM153.932 76.5355C155.55 76.5355 156.851 75.983 157.821 74.8837C158.792 73.7787 159.283 72.3572 159.283 70.6134C159.283 68.9041 158.792 67.5056 157.821 66.4178C156.845 65.3301 155.55 64.7891 153.932 64.7891C152.349 64.7891 151.066 65.3301 150.09 66.4178C149.113 67.5056 148.628 68.9041 148.628 70.6134C148.628 72.3572 149.113 73.7787 150.09 74.8837C151.066 75.983 152.343 76.5355 153.932 76.5355Z" fill="#F8F8F8"/>
<path d="M177.815 57.8253L178.457 60.2943C179.283 59.5404 180.317 58.821 181.554 58.1476C182.791 57.4743 184.039 57.1347 185.293 57.1347C185.819 57.1347 186.316 57.175 186.778 57.2556C187.24 57.3361 187.604 57.4628 187.87 57.6239V65.0251H186.183C184.761 65.0251 183.507 65.1575 182.415 65.4222C181.323 65.6869 180.416 66.0956 179.687 66.6538V83.482H171.511V57.8138H177.815V57.8253Z" fill="#F8F8F8"/>
<path d="M202.843 84.1842C200.895 84.1842 199.11 83.8561 197.492 83.1943C195.874 82.5382 194.475 81.6231 193.302 80.4548C192.129 79.2865 191.222 77.865 190.575 76.1844C189.933 74.5039 189.61 72.6623 189.61 70.6537C189.61 68.6797 189.922 66.861 190.552 65.1978C191.181 63.5345 192.054 62.113 193.175 60.9274C194.296 59.7418 195.66 58.8153 197.266 58.1361C198.867 57.4628 200.641 57.1232 202.594 57.1232C204.576 57.1232 206.362 57.4628 207.945 58.1361C209.528 58.8095 210.869 59.7303 211.961 60.8986C213.053 62.0669 213.886 63.4424 214.463 65.0194C215.041 66.5963 215.33 68.2768 215.33 70.0552C215.33 70.6825 215.307 71.2868 215.255 71.8796C215.209 72.4723 215.145 72.9846 215.082 73.4104H197.341C197.636 74.7572 198.289 75.7989 199.3 76.5183C200.306 77.2434 201.623 77.5887 203.241 77.5542C204.432 77.5542 205.512 77.2837 206.489 76.737C207.466 76.196 208.298 75.396 208.991 74.3428L214.741 77.3528C213.55 79.5225 211.956 81.203 209.956 82.3886C207.957 83.5914 205.587 84.1842 202.843 84.1842ZM202.594 63.4022C201.271 63.4022 200.15 63.7532 199.225 64.4611C198.301 65.169 197.688 66.1819 197.393 67.4941H207.749C207.518 66.1762 206.945 65.169 206.038 64.4611C205.131 63.759 203.987 63.4022 202.594 63.4022Z" fill="#F8F8F8"/>
<path d="M218.508 65.474C218.508 64.323 218.745 63.2295 219.225 62.1935C219.704 61.1576 220.392 60.254 221.282 59.4771C222.172 58.7059 223.258 58.0901 224.529 57.6239C225.801 57.1635 227.245 56.9333 228.863 56.9333C231.244 56.9333 233.284 57.3937 234.983 58.3145C236.688 59.2354 238.08 60.3404 239.172 61.6238L234.463 65.969C233.735 65.2783 232.851 64.6971 231.81 64.2194C230.77 63.7417 229.609 63.5057 228.314 63.5057C227.488 63.5057 226.829 63.6438 226.332 63.9259C225.835 64.2079 225.587 64.6107 225.587 65.1344C225.587 65.6294 225.859 66.0495 226.402 66.3948C226.951 66.7402 228.031 67.0797 229.649 67.4078C232.856 68.0984 235.231 69.0998 236.786 70.4177C238.34 71.7357 239.115 73.5773 239.115 75.9485C239.115 78.4174 238.138 80.4318 236.191 81.9914C234.243 83.5568 231.73 84.3338 228.655 84.3338C226.477 84.3338 224.518 83.8964 222.784 83.0274C221.051 82.1583 219.421 80.7828 217.901 78.9066L222.31 74.5154C223.564 75.8334 224.749 76.7312 225.853 77.2031C226.956 77.675 228.124 77.9167 229.349 77.9167C230.008 77.9167 230.58 77.7671 231.059 77.4736C231.539 77.1801 231.776 76.783 231.776 76.288C231.776 75.7298 231.389 75.2521 230.609 74.855C229.834 74.4579 228.32 74.0147 226.072 73.5198C223.495 72.996 221.588 72.0579 220.346 70.7055C219.126 69.3588 218.508 67.6149 218.508 65.474Z" fill="#F8F8F8"/>
<path d="M259.785 75.8909V83.2921C259.155 83.4878 258.479 83.6432 257.751 83.7583C257.023 83.8734 256.231 83.931 255.37 83.931C252.463 83.931 250.169 83.2346 248.482 81.8361C246.794 80.4376 245.957 78.193 245.957 75.0967V65.1287H241.992V57.8254H245.806L247.39 51.4083H254.128V57.8254H259.779V65.1287H254.128V73.0767C254.128 74.2277 254.399 75.0622 254.948 75.5687C255.491 76.0809 256.214 76.3341 257.103 76.3341C257.629 76.3341 258.126 76.2938 258.589 76.2132C259.057 76.1327 259.455 76.0233 259.785 75.8909Z" fill="#F8F8F8"/>
<path d="M269.499 84.0345C267.979 84.0345 266.685 83.4993 265.61 82.4288C264.535 81.3584 263.998 80.0692 263.998 78.5556C263.998 77.0765 264.535 75.7988 265.61 74.7284C266.685 73.6579 267.979 73.1227 269.499 73.1227C271.019 73.1227 272.313 73.6579 273.388 74.7284C274.463 75.7988 275 77.0707 275 78.5556C275 80.0692 274.463 81.3641 273.388 82.4288C272.313 83.4935 271.019 84.0345 269.499 84.0345Z" fill="#A5A5A5"/>
</g>
<defs>
<clipPath id="clip0_193_661">
<rect width="275" height="83.7083" fill="white" transform="translate(0 0.708374)"/>
</clipPath>
</defs>
</svg>
